<?xml version="1.0" encoding="UTF-8"?>
<svg xmlns="http://www.w3.org/2000/svg" viewBox="-20.00 -20.00 170.00 170.00" width="340.00" height="340.00">
  <rect width="100%" height="100%" fill="#fafafa" />
  <polygon points="0.00,0.00 100.00,0.00 100.00,100.00 0.00,100.00 0.00,0.00" fill="#bdc3c7" stroke="#7f8c8d" stroke-width="1" opacity="0.20" />
  <polygon points="130.00,70.00 129.71,75.88 128.85,81.71 127.42,87.42 125.43,92.96 122.92,98.28 119.89,103.33 116.38,108.06 112.43,112.43 108.06,116.38 103.33,119.89 98.28,122.92 92.96,125.43 87.42,127.42 81.71,128.85 75.88,129.71 70.00,130.00 64.12,129.71 58.29,128.85 52.58,127.42 47.04,125.43 41.72,122.92 36.67,119.89 31.94,116.38 27.57,112.43 23.62,108.06 20.11,103.33 17.08,98.28 14.57,92.96 12.58,87.42 11.15,81.71 10.29,75.88 10.00,70.00 10.29,64.12 11.15,58.29 12.58,52.58 14.57,47.04 17.08,41.72 20.11,36.67 23.62,31.94 27.57,27.57 31.94,23.62 36.67,20.11 41.72,17.08 47.04,14.57 52.58,12.58 58.29,11.15 64.12,10.29 70.00,10.00 75.88,10.29 81.71,11.15 87.42,12.58 92.96,14.57 98.28,17.08 103.33,20.11 108.06,23.62 112.43,27.57 116.38,31.94 119.89,36.67 122.92,41.72 125.43,47.04 127.42,52.58 128.85,58.29 129.71,64.12 130.00,70.00" fill="#bdc3c7" stroke="#7f8c8d" stroke-width="1" opacity="0.20" />
  <polygon points="100.00,18.11 100.00,0.00 0.00,0.00 0.00,100.00 18.11,100.00 17.08,98.28 14.57,92.96 12.58,87.42 11.15,81.71 10.29,75.88 10.00,70.00 10.29,64.12 11.15,58.29 12.58,52.58 14.57,47.04 17.08,41.72 20.11,36.67 23.62,31.94 27.57,27.57 31.94,23.62 36.67,20.11 41.72,17.08 47.04,14.57 52.58,12.58 58.29,11.15 64.12,10.29 70.00,10.00 75.88,10.29 81.71,11.15 87.42,12.58 92.96,14.57 98.28,17.08 100.00,18.11" fill="#f39c12" stroke="#2c3e50" stroke-width="1" opacity="0.50" />
</svg>
