<?xml version="1.0" encoding="UTF-8"?>
<svg xmlns="http://www.w3.org/2000/svg" viewBox="-15.00 115.00 230.00 70.00" width="460.00" height="140.00">
  <rect width="100%" height="100%" fill="#fafafa" />
  <polygon points="180.00,165.00 182.93,164.71 185.74,163.86 188.33,162.47 190.61,160.61 192.47,158.33 193.86,155.74 194.71,152.93 195.00,150.00 194.71,147.07 193.86,144.26 192.47,141.67 190.61,139.39 188.33,137.53 185.74,136.14 182.93,135.29 180.00,135.00 20.00,135.00 17.07,135.29 14.26,136.14 11.67,137.53 9.39,139.39 7.53,141.67 6.14,144.26 5.29,147.07 5.00,150.00 5.29,152.93 6.14,155.74 7.53,158.33 9.39,160.61 11.67,162.47 14.26,163.86 17.07,164.71 20.00,165.00 180.00,165.00" fill="#3498db" stroke="#2c3e50" stroke-width="1" opacity="0.30" />
  <polyline points="20.00,150.00 180.00,150.00" fill="none" stroke="#e74c3c" stroke-width="2.00" />
</svg>
