<?xml version="1.0" encoding="UTF-8"?>
<svg xmlns="http://www.w3.org/2000/svg" viewBox="-19.28 -19.80 439.01 336.75" width="800.00" height="600.00">
  <rect width="100%" height="100%" fill="#fafafa" />
  <circle cx="267.24" cy="42.27" r="2.00" fill="#bdc3c7" />
  <circle cx="50.21" cy="156.83" r="2.00" fill="#bdc3c7" />
  <circle cx="67.37" cy="78.78" r="2.00" fill="#bdc3c7" />
  <circle cx="289.76" cy="153.88" r="2.00" fill="#bdc3c7" />
  <circle cx="69.46" cy="228.38" r="2.00" fill="#bdc3c7" />
  <circle cx="93.84" cy="77.20" r="2.00" fill="#bdc3c7" />
  <circle cx="202.24" cy="96.07" r="2.00" fill="#bdc3c7" />
  <circle cx="152.39" cy="78.07" r="2.00" fill="#bdc3c7" />
  <circle cx="206.98" cy="10.60" r="2.00" fill="#bdc3c7" />
  <circle cx="325.65" cy="173.16" r="2.00" fill="#bdc3c7" />
  <circle cx="158.99" cy="45.66" r="2.00" fill="#bdc3c7" />
  <circle cx="36.05" cy="211.55" r="2.00" fill="#bdc3c7" />
  <circle cx="326.47" cy="161.99" r="2.00" fill="#bdc3c7" />
  <circle cx="17.66" cy="213.35" r="2.00" fill="#bdc3c7" />
  <circle cx="59.10" cy="271.86" r="2.00" fill="#bdc3c7" />
  <circle cx="277.04" cy="154.92" r="2.00" fill="#bdc3c7" />
  <circle cx="74.55" cy="12.45" r="2.00" fill="#bdc3c7" />
  <circle cx="123.28" cy="174.95" r="2.00" fill="#bdc3c7" />
  <circle cx="328.43" cy="1.19" r="2.00" fill="#bdc3c7" />
  <circle cx="214.29" cy="241.56" r="2.00" fill="#bdc3c7" />
  <circle cx="299.34" cy="115.37" r="2.00" fill="#bdc3c7" />
  <circle cx="59.65" cy="7.90" r="2.00" fill="#bdc3c7" />
  <circle cx="20.40" cy="234.49" r="2.00" fill="#bdc3c7" />
  <circle cx="250.58" cy="34.55" r="2.00" fill="#bdc3c7" />
  <circle cx="99.98" cy="231.73" r="2.00" fill="#bdc3c7" />
  <circle cx="115.84" cy="194.44" r="2.00" fill="#bdc3c7" />
  <circle cx="57.46" cy="13.35" r="2.00" fill="#bdc3c7" />
  <circle cx="241.82" cy="154.77" r="2.00" fill="#bdc3c7" />
  <circle cx="20.32" cy="126.11" r="2.00" fill="#bdc3c7" />
  <circle cx="282.63" cy="188.54" r="2.00" fill="#bdc3c7" />
  <circle cx="87.38" cy="3.98" r="2.00" fill="#bdc3c7" />
  <circle cx="146.06" cy="80.23" r="2.00" fill="#bdc3c7" />
  <circle cx="27.46" cy="215.45" r="2.00" fill="#bdc3c7" />
  <circle cx="28.38" cy="139.23" r="2.00" fill="#bdc3c7" />
  <circle cx="4.81" cy="239.34" r="2.00" fill="#bdc3c7" />
  <circle cx="175.67" cy="154.05" r="2.00" fill="#bdc3c7" />
  <circle cx="199.84" cy="2.69" r="2.00" fill="#bdc3c7" />
  <circle cx="331.54" cy="3.87" r="2.00" fill="#bdc3c7" />
  <circle cx="1.23" cy="19.13" r="2.00" fill="#bdc3c7" />
  <circle cx="261.66" cy="10.36" r="2.00" fill="#bdc3c7" />
  <circle cx="365.41" cy="278.69" r="2.00" fill="#bdc3c7" />
  <circle cx="184.48" cy="112.60" r="2.00" fill="#bdc3c7" />
  <circle cx="246.64" cy="13.33" r="2.00" fill="#bdc3c7" />
  <circle cx="149.11" cy="42.56" r="2.00" fill="#bdc3c7" />
  <circle cx="174.78" cy="237.69" r="2.00" fill="#bdc3c7" />
  <circle cx="212.95" cy="120.21" r="2.00" fill="#bdc3c7" />
  <circle cx="118.95" cy="272.18" r="2.00" fill="#bdc3c7" />
  <circle cx="234.70" cy="220.53" r="2.00" fill="#bdc3c7" />
  <circle cx="7.76" cy="264.50" r="2.00" fill="#bdc3c7" />
  <circle cx="383.07" cy="99.85" r="2.00" fill="#bdc3c7" />
  <circle cx="284.28" cy="48.71" r="2.00" fill="#bdc3c7" />
  <circle cx="41.26" cy="135.65" r="2.00" fill="#bdc3c7" />
  <circle cx="133.30" cy="232.83" r="2.00" fill="#bdc3c7" />
  <circle cx="59.42" cy="40.41" r="2.00" fill="#bdc3c7" />
  <circle cx="86.26" cy="177.50" r="2.00" fill="#bdc3c7" />
  <circle cx="205.14" cy="296.11" r="2.00" fill="#bdc3c7" />
  <circle cx="306.49" cy="201.61" r="2.00" fill="#bdc3c7" />
  <circle cx="285.98" cy="86.84" r="2.00" fill="#bdc3c7" />
  <circle cx="220.82" cy="296.95" r="2.00" fill="#bdc3c7" />
  <circle cx="260.33" cy="7.27" r="2.00" fill="#bdc3c7" />
  <circle cx="138.16" cy="278.72" r="2.00" fill="#bdc3c7" />
  <circle cx="10.86" cy="65.92" r="2.00" fill="#bdc3c7" />
  <circle cx="106.18" cy="11.54" r="2.00" fill="#bdc3c7" />
  <circle cx="86.45" cy="177.70" r="2.00" fill="#bdc3c7" />
  <circle cx="168.89" cy="28.12" r="2.00" fill="#bdc3c7" />
  <circle cx="397.39" cy="36.42" r="2.00" fill="#bdc3c7" />
  <circle cx="42.44" cy="96.39" r="2.00" fill="#bdc3c7" />
  <circle cx="129.54" cy="225.35" r="2.00" fill="#bdc3c7" />
  <circle cx="330.33" cy="2.71" r="2.00" fill="#bdc3c7" />
  <circle cx="16.83" cy="252.15" r="2.00" fill="#bdc3c7" />
  <circle cx="358.36" cy="71.42" r="2.00" fill="#bdc3c7" />
  <circle cx="370.49" cy="253.59" r="2.00" fill="#bdc3c7" />
  <circle cx="111.78" cy="163.60" r="2.00" fill="#bdc3c7" />
  <circle cx="253.79" cy="187.60" r="2.00" fill="#bdc3c7" />
  <circle cx="76.92" cy="89.18" r="2.00" fill="#bdc3c7" />
  <circle cx="73.22" cy="8.88" r="2.00" fill="#bdc3c7" />
  <circle cx="92.34" cy="280.04" r="2.00" fill="#bdc3c7" />
  <circle cx="394.97" cy="234.49" r="2.00" fill="#bdc3c7" />
  <circle cx="54.09" cy="265.02" r="2.00" fill="#bdc3c7" />
  <circle cx="74.68" cy="88.43" r="2.00" fill="#bdc3c7" />
  <circle cx="223.99" cy="166.86" r="2.00" fill="#bdc3c7" />
  <circle cx="284.99" cy="36.58" r="2.00" fill="#bdc3c7" />
  <circle cx="239.27" cy="117.43" r="2.00" fill="#bdc3c7" />
  <circle cx="352.37" cy="133.47" r="2.00" fill="#bdc3c7" />
  <circle cx="139.28" cy="289.14" r="2.00" fill="#bdc3c7" />
  <circle cx="185.46" cy="162.91" r="2.00" fill="#bdc3c7" />
  <circle cx="379.10" cy="243.10" r="2.00" fill="#bdc3c7" />
  <circle cx="51.33" cy="32.20" r="2.00" fill="#bdc3c7" />
  <circle cx="1.14" cy="54.56" r="2.00" fill="#bdc3c7" />
  <circle cx="376.12" cy="216.03" r="2.00" fill="#bdc3c7" />
  <circle cx="161.60" cy="177.24" r="2.00" fill="#bdc3c7" />
  <circle cx="160.01" cy="37.48" r="2.00" fill="#bdc3c7" />
  <circle cx="364.28" cy="289.17" r="2.00" fill="#bdc3c7" />
  <circle cx="356.22" cy="51.79" r="2.00" fill="#bdc3c7" />
  <circle cx="133.55" cy="162.66" r="2.00" fill="#bdc3c7" />
  <circle cx="246.37" cy="282.73" r="2.00" fill="#bdc3c7" />
  <circle cx="328.93" cy="224.19" r="2.00" fill="#bdc3c7" />
  <circle cx="112.20" cy="101.91" r="2.00" fill="#bdc3c7" />
  <circle cx="210.24" cy="241.29" r="2.00" fill="#bdc3c7" />
  <circle cx="98.84" cy="266.40" r="2.00" fill="#bdc3c7" />
  <circle cx="265.77" cy="56.87" r="2.00" fill="#bdc3c7" />
  <circle cx="110.85" cy="68.55" r="2.00" fill="#bdc3c7" />
  <circle cx="333.45" cy="192.01" r="2.00" fill="#bdc3c7" />
  <circle cx="32.74" cy="126.15" r="2.00" fill="#bdc3c7" />
  <circle cx="322.06" cy="264.03" r="2.00" fill="#bdc3c7" />
  <circle cx="311.52" cy="286.01" r="2.00" fill="#bdc3c7" />
  <circle cx="377.24" cy="139.98" r="2.00" fill="#bdc3c7" />
  <circle cx="356.31" cy="290.76" r="2.00" fill="#bdc3c7" />
  <circle cx="62.47" cy="176.26" r="2.00" fill="#bdc3c7" />
  <circle cx="84.50" cy="190.28" r="2.00" fill="#bdc3c7" />
  <circle cx="200.36" cy="212.49" r="2.00" fill="#bdc3c7" />
  <circle cx="44.41" cy="241.80" r="2.00" fill="#bdc3c7" />
  <circle cx="139.15" cy="156.36" r="2.00" fill="#bdc3c7" />
  <circle cx="288.27" cy="60.13" r="2.00" fill="#bdc3c7" />
  <circle cx="211.93" cy="236.59" r="2.00" fill="#bdc3c7" />
  <circle cx="232.70" cy="59.57" r="2.00" fill="#bdc3c7" />
  <circle cx="373.90" cy="15.69" r="2.00" fill="#bdc3c7" />
  <circle cx="22.27" cy="64.33" r="2.00" fill="#bdc3c7" />
  <circle cx="125.47" cy="51.46" r="2.00" fill="#bdc3c7" />
  <circle cx="116.53" cy="81.20" r="2.00" fill="#bdc3c7" />
  <circle cx="352.82" cy="141.01" r="2.00" fill="#bdc3c7" />
  <circle cx="147.00" cy="136.14" r="2.00" fill="#bdc3c7" />
  <circle cx="305.36" cy="198.77" r="2.00" fill="#bdc3c7" />
  <circle cx="399.73" cy="106.72" r="2.00" fill="#bdc3c7" />
  <circle cx="342.62" cy="93.39" r="2.00" fill="#bdc3c7" />
  <circle cx="73.40" cy="281.42" r="2.00" fill="#bdc3c7" />
  <circle cx="237.22" cy="183.85" r="2.00" fill="#bdc3c7" />
  <circle cx="154.84" cy="286.84" r="2.00" fill="#bdc3c7" />
  <circle cx="31.41" cy="141.34" r="2.00" fill="#bdc3c7" />
  <circle cx="352.26" cy="93.72" r="2.00" fill="#bdc3c7" />
  <circle cx="367.74" cy="264.42" r="2.00" fill="#bdc3c7" />
  <circle cx="356.27" cy="4.95" r="2.00" fill="#bdc3c7" />
  <circle cx="119.34" cy="174.07" r="2.00" fill="#bdc3c7" />
  <circle cx="7.45" cy="267.24" r="2.00" fill="#bdc3c7" />
  <circle cx="164.37" cy="202.90" r="2.00" fill="#bdc3c7" />
  <circle cx="262.21" cy="295.40" r="2.00" fill="#bdc3c7" />
  <circle cx="118.48" cy="282.17" r="2.00" fill="#bdc3c7" />
  <circle cx="300.89" cy="9.26" r="2.00" fill="#bdc3c7" />
  <circle cx="136.32" cy="197.17" r="2.00" fill="#bdc3c7" />
  <circle cx="17.04" cy="205.59" r="2.00" fill="#bdc3c7" />
  <circle cx="208.75" cy="109.49" r="2.00" fill="#bdc3c7" />
  <circle cx="137.55" cy="65.55" r="2.00" fill="#bdc3c7" />
  <circle cx="242.05" cy="193.10" r="2.00" fill="#bdc3c7" />
  <circle cx="242.20" cy="96.57" r="2.00" fill="#bdc3c7" />
  <circle cx="266.08" cy="29.87" r="2.00" fill="#bdc3c7" />
  <circle cx="54.37" cy="252.76" r="2.00" fill="#bdc3c7" />
  <circle cx="116.35" cy="293.68" r="2.00" fill="#bdc3c7" />
  <circle cx="140.53" cy="0.20" r="2.00" fill="#bdc3c7" />
  <circle cx="231.74" cy="105.30" r="2.00" fill="#bdc3c7" />
  <circle cx="62.17" cy="54.95" r="2.00" fill="#bdc3c7" />
  <circle cx="257.58" cy="32.56" r="2.00" fill="#bdc3c7" />
  <circle cx="377.92" cy="54.07" r="2.00" fill="#bdc3c7" />
  <circle cx="262.32" cy="59.65" r="2.00" fill="#bdc3c7" />
  <circle cx="256.75" cy="195.74" r="2.00" fill="#bdc3c7" />
  <circle cx="344.25" cy="106.87" r="2.00" fill="#bdc3c7" />
  <circle cx="246.13" cy="126.39" r="2.00" fill="#bdc3c7" />
  <circle cx="171.41" cy="58.60" r="2.00" fill="#bdc3c7" />
  <circle cx="316.21" cy="166.32" r="2.00" fill="#bdc3c7" />
  <circle cx="215.01" cy="201.65" r="2.00" fill="#bdc3c7" />
  <circle cx="164.55" cy="196.40" r="2.00" fill="#bdc3c7" />
  <circle cx="389.90" cy="209.01" r="2.00" fill="#bdc3c7" />
  <circle cx="90.24" cy="93.41" r="2.00" fill="#bdc3c7" />
  <circle cx="216.16" cy="243.89" r="2.00" fill="#bdc3c7" />
  <circle cx="277.52" cy="95.18" r="2.00" fill="#bdc3c7" />
  <circle cx="235.71" cy="225.47" r="2.00" fill="#bdc3c7" />
  <circle cx="180.61" cy="296.94" r="2.00" fill="#bdc3c7" />
  <circle cx="200.72" cy="257.83" r="2.00" fill="#bdc3c7" />
  <circle cx="16.54" cy="124.00" r="2.00" fill="#bdc3c7" />
  <circle cx="168.06" cy="49.09" r="2.00" fill="#bdc3c7" />
  <circle cx="225.09" cy="121.89" r="2.00" fill="#bdc3c7" />
  <circle cx="0.72" cy="285.91" r="2.00" fill="#bdc3c7" />
  <circle cx="184.52" cy="92.69" r="2.00" fill="#bdc3c7" />
  <circle cx="193.70" cy="214.39" r="2.00" fill="#bdc3c7" />
  <circle cx="165.61" cy="28.66" r="2.00" fill="#bdc3c7" />
  <circle cx="75.36" cy="239.08" r="2.00" fill="#bdc3c7" />
  <circle cx="185.25" cy="272.15" r="2.00" fill="#bdc3c7" />
  <circle cx="375.85" cy="150.23" r="2.00" fill="#bdc3c7" />
  <circle cx="83.37" cy="284.17" r="2.00" fill="#bdc3c7" />
  <circle cx="353.18" cy="190.03" r="2.00" fill="#bdc3c7" />
  <circle cx="255.93" cy="252.85" r="2.00" fill="#bdc3c7" />
  <circle cx="202.02" cy="97.38" r="2.00" fill="#bdc3c7" />
  <circle cx="25.28" cy="32.72" r="2.00" fill="#bdc3c7" />
  <circle cx="361.89" cy="187.65" r="2.00" fill="#bdc3c7" />
  <circle cx="367.79" cy="170.73" r="2.00" fill="#bdc3c7" />
  <circle cx="61.60" cy="113.16" r="2.00" fill="#bdc3c7" />
  <circle cx="53.69" cy="112.17" r="2.00" fill="#bdc3c7" />
  <circle cx="43.78" cy="1.52" r="2.00" fill="#bdc3c7" />
  <circle cx="261.15" cy="6.52" r="2.00" fill="#bdc3c7" />
  <circle cx="94.17" cy="274.99" r="2.00" fill="#bdc3c7" />
  <circle cx="330.85" cy="247.73" r="2.00" fill="#bdc3c7" />
  <circle cx="159.58" cy="179.48" r="2.00" fill="#bdc3c7" />
  <circle cx="51.55" cy="237.70" r="2.00" fill="#bdc3c7" />
  <circle cx="115.38" cy="163.30" r="2.00" fill="#bdc3c7" />
  <circle cx="20.07" cy="0.31" r="2.00" fill="#bdc3c7" />
  <circle cx="260.40" cy="28.24" r="2.00" fill="#bdc3c7" />
  <circle cx="212.16" cy="236.02" r="2.00" fill="#bdc3c7" />
  <circle cx="209.53" cy="215.97" r="2.00" fill="#bdc3c7" />
  <circle cx="360.50" cy="203.16" r="2.00" fill="#bdc3c7" />
  <circle cx="355.93" cy="105.67" r="2.00" fill="#bdc3c7" />
  <circle cx="161.70" cy="257.62" r="2.00" fill="#bdc3c7" />
  <circle cx="146.06" cy="80.23" r="3.00" fill="#e74c3c" />
  <circle cx="116.53" cy="81.20" r="3.00" fill="#e74c3c" />
  <circle cx="112.20" cy="101.91" r="3.00" fill="#e74c3c" />
  <circle cx="139.15" cy="156.36" r="3.00" fill="#e74c3c" />
  <circle cx="133.55" cy="162.66" r="3.00" fill="#e74c3c" />
  <circle cx="115.38" cy="163.30" r="3.00" fill="#e74c3c" />
  <circle cx="111.78" cy="163.60" r="3.00" fill="#e74c3c" />
  <circle cx="119.34" cy="174.07" r="3.00" fill="#e74c3c" />
  <circle cx="184.52" cy="92.69" r="3.00" fill="#e74c3c" />
  <circle cx="184.48" cy="112.60" r="3.00" fill="#e74c3c" />
  <circle cx="147.00" cy="136.14" r="3.00" fill="#e74c3c" />
  <circle cx="175.67" cy="154.05" r="3.00" fill="#e74c3c" />
  <circle cx="185.46" cy="162.91" r="3.00" fill="#e74c3c" />
  <circle cx="161.60" cy="177.24" r="3.00" fill="#e74c3c" />
  <circle cx="123.28" cy="174.95" r="3.00" fill="#e74c3c" />
  <circle cx="159.58" cy="179.48" r="3.00" fill="#e74c3c" />
  <polygon points="100.00,80.00 200.00,80.00 200.00,180.00 100.00,180.00 100.00,80.00" fill="#e74c3c" stroke="#c0392b" stroke-width="1" opacity="0.10" />
  <circle cx="250.00" cy="150.00" r="6.00" fill="#2ecc71" />
  <line x1="250.00" y1="150.00" x2="241.82" y2="154.77" stroke="#2ecc71" stroke-width="1.00" />
  <text x="255.00" y="145.00" font-size="10" fill="#333" font-family="monospace">query</text>
  <text x="246.82" y="149.77" font-size="10" fill="#333" font-family="monospace">nearest</text>
</svg>
